<?xml version="1.0" encoding="UTF-8"?>
<svg width="24" height="24" viewBox="0 0 24 24" fill="none" xmlns="http://www.w3.org/2000/svg">
  <path d="M4 16C4 16.88 4.39 17.67 5 18.22V20C5 20.55 5.45 21 6 21H7C7.55 21 8 20.55 8 20V19H16V20C16 20.55 16.45 21 17 21H18C18.55 21 19 20.55 19 20V18.22C19.61 17.67 20 16.88 20 16V6C20 2.5 16.42 2 12 2C7.58 2 4 2.5 4 6V16Z" fill="#4285F4"/>
  <path d="M7.5 17C8.33 17 9 16.33 9 15.5C9 14.67 8.33 14 7.5 14C6.67 14 6 14.67 6 15.5C6 16.33 6.67 17 7.5 17Z" fill="white"/>
  <path d="M16.5 17C17.33 17 18 16.33 18 15.5C18 14.67 17.33 14 16.5 14C15.67 14 15 14.67 15 15.5C15 16.33 15.67 17 16.5 17Z" fill="white"/>
  <path d="M18 11H6V6H18V11Z" fill="white"/>
</svg> 