<svg xmlns="http://www.w3.org/2000/svg" width="48" height="48" viewBox="0 0 48 48">
  <circle cx="24" cy="24" r="22" fill="#4285F4" />
  <path d="M24 8C16.268 8 10 14.268 10 22C10 29.732 16.268 36 24 36C31.732 36 38 29.732 38 22C38 14.268 31.732 8 24 8ZM24 34C17.373 34 12 28.627 12 22C12 15.373 17.373 10 24 10C30.627 10 36 15.373 36 22C36 28.627 30.627 34 24 34Z" fill="white" />
  <path d="M24 12C18.477 12 14 16.477 14 22C14 27.523 18.477 32 24 32C29.523 32 34 27.523 34 22C34 16.477 29.523 12 24 12ZM24 30C19.589 30 16 26.411 16 22C16 17.589 19.589 14 24 14C28.411 14 32 17.589 32 22C32 26.411 28.411 30 24 30Z" fill="white" />
  <circle cx="24" cy="22" r="6" fill="white" />
  <path d="M24 4L28 12H20L24 4Z" fill="#4285F4" />
</svg> 